<?xml version="1.0" encoding="UTF-8" standalone="no"?>
<!-- Created with Inkscape (http://www.inkscape.org/) -->

<svg
   xmlns:dc="http://purl.org/dc/elements/1.1/"
   xmlns:cc="http://creativecommons.org/ns#"
   xmlns:rdf="http://www.w3.org/1999/02/22-rdf-syntax-ns#"
   xmlns:svg="http://www.w3.org/2000/svg"
   xmlns="http://www.w3.org/2000/svg"
   xmlns:xlink="http://www.w3.org/1999/xlink"
   xmlns:sodipodi="http://sodipodi.sourceforge.net/DTD/sodipodi-0.dtd"
   xmlns:inkscape="http://www.inkscape.org/namespaces/inkscape"
   width="130"
   height="130"
   id="svg7901"
   version="1.1"
   inkscape:version="0.48.2 r9819"
   sodipodi:docname="logo.svg">
  <defs
     id="defs7903">
    <linearGradient
       inkscape:collect="always"
       id="linearGradient8643">
      <stop
         style="stop-color:#0000ff;stop-opacity:1;"
         offset="0"
         id="stop8645" />
      <stop
         style="stop-color:#0000ff;stop-opacity:0;"
         offset="1"
         id="stop8647" />
    </linearGradient>
    <filter
       color-interpolation-filters="sRGB"
       inkscape:collect="always"
       id="filter5140-7"
       x="-0.047758449"
       width="1.0955169"
       y="-0.26387328"
       height="1.5277466">
      <feGaussianBlur
         inkscape:collect="always"
         stdDeviation="2.8805981"
         id="feGaussianBlur5142-9" />
    </filter>
    <filter
       color-interpolation-filters="sRGB"
       inkscape:collect="always"
       id="filter5106-7"
       x="-0.029302763"
       width="1.0586056"
       y="-0.16190258"
       height="1.3238051">
      <feGaussianBlur
         inkscape:collect="always"
         stdDeviation="1.7674251"
         id="feGaussianBlur5108-9" />
    </filter>
    <radialGradient
       inkscape:collect="always"
       xlink:href="#linearGradient4051-8"
       id="radialGradient10614"
       gradientUnits="userSpaceOnUse"
       gradientTransform="matrix(-9.6669142e-4,-0.52106023,0.43666891,-8.1012405e-4,-2740.1955,1408.6541)"
       cx="365.8447"
       cy="333.18137"
       fx="365.8447"
       fy="333.18137"
       r="124.47594" />
    <linearGradient
       id="linearGradient4051-8">
      <stop
         style="stop-color:#ce4c00;stop-opacity:1;"
         offset="0"
         id="stop4053-8" />
      <stop
         id="stop4059-9"
         offset="0.71231675"
         style="stop-color:#552200;stop-opacity:1;" />
      <stop
         style="stop-color:#000000;stop-opacity:1;"
         offset="1"
         id="stop4055-8" />
    </linearGradient>
    <filter
       inkscape:collect="always"
       id="filter3971-0"
       x="-0.43796295"
       width="1.8759259"
       y="-0.42232144"
       height="1.8446429"
       color-interpolation-filters="sRGB">
      <feGaussianBlur
         inkscape:collect="always"
         stdDeviation="7.0386906"
         id="feGaussianBlur3973-2" />
    </filter>
    <inkscape:path-effect
       effect="skeletal"
       id="path-effect3661-4"
       is_visible="true"
       pattern="m 309.14286,1006 -1.01015,2.4239 11.01015,2.5761 -10,-5 z"
       copytype="single_stretched"
       prop_scale="1"
       scale_y_rel="false"
       spacing="0"
       normal_offset="0"
       tang_offset="0"
       prop_units="false"
       vertical_pattern="false"
       fuse_tolerance="0"
       pattern-nodetypes="cccc" />
    <filter
       inkscape:collect="always"
       id="filter3821-3"
       x="-0.12603401"
       width="1.252068"
       y="-0.030481882"
       height="1.0609637"
       color-interpolation-filters="sRGB">
      <feGaussianBlur
         inkscape:collect="always"
         stdDeviation="0.28982814"
         id="feGaussianBlur3823-7" />
    </filter>
    <filter
       inkscape:collect="always"
       id="filter3828-3"
       x="-0.30000764"
       width="1.6000153"
       y="-0.36665523"
       height="1.7333105"
       color-interpolation-filters="sRGB">
      <feGaussianBlur
         inkscape:collect="always"
         stdDeviation="2.555373"
         id="feGaussianBlur3830-0" />
    </filter>
    <inkscape:path-effect
       fuse_tolerance="0"
       vertical_pattern="false"
       prop_units="false"
       tang_offset="0"
       normal_offset="0"
       spacing="0"
       scale_y_rel="false"
       prop_scale="1"
       copytype="single_stretched"
       pattern="m -2743.333,1731.4914 0,10 10,-5 z"
       is_visible="true"
       id="path-effect3344-0"
       effect="skeletal" />
    <filter
       inkscape:collect="always"
       id="filter4083-1"
       x="-0.24371614"
       width="1.4874322"
       y="-0.19940411"
       height="1.3988082"
       color-interpolation-filters="sRGB">
      <feGaussianBlur
         inkscape:collect="always"
         stdDeviation="0.92321427"
         id="feGaussianBlur4085-5" />
    </filter>
    <filter
       inkscape:collect="always"
       id="filter4091-8"
       x="-0.20494312"
       width="1.4098862"
       y="-0.16768073"
       height="1.3353615"
       color-interpolation-filters="sRGB">
      <feGaussianBlur
         inkscape:collect="always"
         stdDeviation="0.77633927"
         id="feGaussianBlur4093-0" />
    </filter>
    <radialGradient
       inkscape:collect="always"
       xlink:href="#linearGradient3035-0"
       id="radialGradient10616"
       gradientUnits="userSpaceOnUse"
       gradientTransform="matrix(0.01359391,0.35613361,-0.84468821,0.03224267,-2363.3193,1114.9954)"
       cx="333.90518"
       cy="280.12634"
       fx="333.90518"
       fy="280.12634"
       r="23.751455" />
    <linearGradient
       id="linearGradient3035-0">
      <stop
         style="stop-color:#000000;stop-opacity:1;"
         offset="0"
         id="stop3037-0" />
      <stop
         id="stop3043-4"
         offset="0.60000002"
         style="stop-color:#380000;stop-opacity:1;" />
      <stop
         style="stop-color:#ba0000;stop-opacity:1;"
         offset="1"
         id="stop3039-7" />
    </linearGradient>
    <inkscape:path-effect
       pattern-nodetypes="cccc"
       fuse_tolerance="0"
       vertical_pattern="false"
       prop_units="false"
       tang_offset="0"
       normal_offset="0"
       spacing="0"
       scale_y_rel="false"
       prop_scale="1"
       copytype="single_stretched"
       pattern="m 115.71429,274.57143 0.0742,2.65233 9.92578,2.34767 -10,-5 z"
       is_visible="true"
       id="path-effect3051-1"
       effect="skeletal" />
    <inkscape:path-effect
       effect="skeletal"
       id="path-effect3322-4"
       is_visible="true"
       pattern="m -2683.333,1731.4914 0,10 10,-5 z"
       copytype="single_stretched"
       prop_scale="1"
       scale_y_rel="false"
       spacing="0"
       normal_offset="0"
       tang_offset="0"
       prop_units="false"
       vertical_pattern="false"
       fuse_tolerance="0" />
    <linearGradient
       inkscape:collect="always"
       xlink:href="#linearGradient8643"
       id="linearGradient8649"
       x1="-172.20535"
       y1="63.571428"
       x2="-91.366066"
       y2="63.571428"
       gradientUnits="userSpaceOnUse" />
  </defs>
  <sodipodi:namedview
     id="base"
     pagecolor="#ffffff"
     bordercolor="#666666"
     borderopacity="1.0"
     inkscape:pageopacity="0.0"
     inkscape:pageshadow="2"
     inkscape:zoom="1.4"
     inkscape:cx="111.58617"
     inkscape:cy="13.929551"
     inkscape:document-units="px"
     inkscape:current-layer="layer1"
     showgrid="false"
     fit-margin-top="0"
     fit-margin-left="0"
     fit-margin-right="0"
     fit-margin-bottom="0"
     inkscape:window-width="1024"
     inkscape:window-height="708"
     inkscape:window-x="0"
     inkscape:window-y="30"
     inkscape:window-maximized="1" />
  <metadata
     id="metadata7906">
    <rdf:RDF>
      <cc:Work
         rdf:about="">
        <dc:format>image/svg+xml</dc:format>
        <dc:type
           rdf:resource="http://purl.org/dc/dcmitype/StillImage" />
        <dc:title></dc:title>
      </cc:Work>
    </rdf:RDF>
  </metadata>
  <g
     inkscape:label="Layer 1"
     inkscape:groupmode="layer"
     id="layer1"
     transform="translate(-392.14285,-427.36218)">
    <g
       id="g10556"
       transform="matrix(0.86528231,0,0,0.86528231,2702.3236,-551.92259)"
       inkscape:export-filename="/home/tiger/Documents/aapython/MyPrograms/board/board_back_ups/img_originals/logo.png"
       inkscape:export-xdpi="90"
       inkscape:export-ydpi="90">
      <path
         inkscape:connector-curvature="0"
         sodipodi:nodetypes="ccccccc"
         d="m -2643.6166,1201.8236 c -12.1336,3.3058 -23.5796,2.3811 -21.1619,-27.4797 -0.097,-18.1625 19.4327,-1.4128 45.5911,8.7509 l 24.4495,13.1578 24.4495,-13.1578 c 26.1584,-10.1637 45.688,-26.9134 45.5912,-8.7509 2.4176,29.8608 -9.0283,30.7855 -21.162,27.4797"
         style="fill:#552200;stroke:#000000;stroke-width:0.47647628px;stroke-linecap:butt;stroke-linejoin:miter;stroke-opacity:1"
         id="path10558" />
      <path
         inkscape:connector-curvature="0"
         transform="matrix(0.71432184,0,0,0.52324904,-2713.7089,753.67931)"
         id="path10560"
         style="opacity:0.88549619;fill:#000000;stroke:#000000;stroke-width:0;stroke-linecap:butt;stroke-linejoin:miter;stroke-miterlimit:4;stroke-opacity:1;stroke-dasharray:none;filter:url(#filter5140-7)"
         d="m 166.5511,837.28424 -48.13142,3.65507 c -17.02466,2.83486 -26.27777,2.5054 -23.8707,-19.66583 -0.0963,-13.48547 16.12275,10.06838 72.00212,11.07697 55.87937,0.41998 71.02699,-27.77673 72.00212,-11.07697 2.40707,22.17123 -6.84604,22.50069 -23.8707,19.66583 l -48.13142,-3.65507 z"
         sodipodi:nodetypes="ccccccc" />
      <path
         transform="matrix(0.89448832,0,0,0.89448832,-3663.8771,-12.67109)"
         inkscape:connector-curvature="0"
         sodipodi:nodetypes="ccccccc"
         d="m 1195.2523,1347.0543 -48.1314,3.655 c -17.0247,2.8349 -26.2778,2.5054 -23.8707,-19.6658 -0.096,-13.4855 16.1227,10.0684 72.0021,11.077 55.8794,0.42 71.027,-27.7768 72.0021,-11.077 2.4071,22.1712 -6.846,22.5007 -23.8707,19.6658 l -48.1314,-3.655 z"
         style="opacity:0.30534351;fill:#c87137;stroke:#000000;stroke-width:0;stroke-linecap:butt;stroke-linejoin:miter;stroke-miterlimit:4;stroke-opacity:1;stroke-dasharray:none;filter:url(#filter5106-7)"
         id="path10562" />
      <path
         inkscape:connector-curvature="0"
         style="fill:url(#radialGradient10614);fill-opacity:1;stroke:none"
         d="m -2636.9728,1228.2265 c -7.0506,-1.9449 -7.8509,8.2548 -4.9248,13.4768 -6.9424,-9.0542 -1.4718,-20.8613 0.5669,-23.9899 -3.2383,-1.286 -5.7287,-1.2649 -8.8637,6.8505 -1.0797,-9.6586 3.79,-13.5044 10.1313,-15.9789 -8.5026,-3.4093 -9.3511,0.1034 -14.1159,4.8682 0,0 6.2209,-17.1584 18.1328,-17.1584 3.4922,-14.6269 1.4753,-17.0018 14.3731,-25.1639 -6.9041,-5.1632 -12.2106,4.3493 -12.2106,4.3493 0,0 6.3759,-17.734 20.5301,-9.7659 -4.7531,-6.7695 -13.474,-6.7323 -13.474,-6.7323 0,0 7.6386,-2.5655 22.1001,7.0713 1.1477,-6.5959 -10.2779,-12.8459 -10.2779,-12.8459 5.4109,1.1666 12.6088,5.9079 16.3979,10.2776 3.789,-4.8413 10.0314,-8.6855 15.4422,-9.8521 0,0 -8.5277,6.6971 -9.76,11.1808 13.8072,-8.487 12.7021,-8.5687 22.8595,-8.6024 -7.6637,4.1991 -7.8222,4.619 -10.4959,9.7959 14.4387,-7.6508 21.6451,-2.5821 21.6451,-2.5821 0,0 -12.1726,-0.3815 -16.1041,5.0923 13.5849,-3.7208 20.9129,2.996 20.9129,2.996 0,0 -7.6908,-3.6108 -11.9446,0.1663 8.5582,3.2152 10.3392,16.2189 9.9114,24.6607 0,0 15.3617,1.7519 16.9427,22.2844 -6.2195,-9.4264 -7.1221,-9.546 -11.3109,-9.7466 4.3977,3.5662 8.1953,7.8109 8.0153,17.4693 -2.2563,-5.9392 -2.2454,-5.4445 -7.3252,-8.4606 2.9446,8.4939 5.1405,17.0746 -0.4813,22.02 3.4643,-4.6365 -0.1328,-11.9035 -3.1286,-11.3108 l 0.4062,0.4795 -83.95,-0.8491 z"
         id="path10564"
         sodipodi:nodetypes="ccccccccccccccccccccccccccccccc"
         inkscape:export-filename="C:\Documents and Settings\!Tiger2\Desktop\Web design start files\grafiki\bare deal\test1.png"
         inkscape:export-xdpi="90"
         inkscape:export-ydpi="90" />
      <path
         inkscape:connector-curvature="0"
         id="path10566"
         style="fill:#ffe680;stroke:#000000;stroke-width:0.47647628px;stroke-linecap:butt;stroke-linejoin:miter;stroke-opacity:1"
         d="m -2606.3212,1209.5655 c 0,0 -9.4652,-12.7172 -7.4194,-17.3476 3.6287,-8.2126 10.2676,-7.0299 13.5078,-5.5865 4.4438,1.9796 4.9751,13.3599 3.0254,20.5729 -3.138,0.2838 -6.2021,0.8882 -9.1138,2.3612 l 0,0 z m 11.9726,-2.2712 c -1.7208,-11.3017 1.2007,-20.3267 5.0658,-21.3495 4.4729,-1.1838 9.9778,-0.3935 11.8497,7.0162 0.9722,2.4598 -1.9356,8.382 -8.1457,17.0383 -2.926,-1.2139 -5.526,-2.2854 -8.7698,-2.705 z"
         sodipodi:nodetypes="cssccccsccc"
         inkscape:export-filename="C:\Documents and Settings\!Tiger2\Desktop\Web design start files\grafiki\bare deal\test1.png"
         inkscape:export-xdpi="90"
         inkscape:export-ydpi="90" />
      <path
         transform="matrix(0.90848143,0,0,0.84466248,-2873.7142,1009.9177)"
         d="m 317.69296,227.57263 c 0,3.06841 -2.03517,5.55584 -4.54568,5.55584 -2.51052,0 -4.54569,-2.48743 -4.54569,-5.55584 0,-3.0684 2.03517,-5.55584 4.54569,-5.55584 2.51051,0 4.54568,2.48744 4.54568,5.55584 z"
         sodipodi:ry="5.5558391"
         sodipodi:rx="4.5456862"
         sodipodi:cy="227.57263"
         sodipodi:cx="313.14728"
         id="path10568"
         style="color:#000000;fill:#1a1a1a;fill-opacity:1;fill-rule:nonzero;stroke:#0000a2;stroke-width:0;stroke-miterlimit:4;stroke-opacity:1;stroke-dasharray:none;stroke-dashoffset:0;marker:none;visibility:visible;display:inline;overflow:visible;enable-background:accumulate"
         sodipodi:type="arc"
         inkscape:export-filename="C:\Documents and Settings\!Tiger2\Desktop\Web design start files\grafiki\bare deal\test1.png"
         inkscape:export-xdpi="90"
         inkscape:export-ydpi="90" />
      <path
         inkscape:connector-curvature="0"
         sodipodi:nodetypes="ccsccccscccc"
         style="fill:#ff9955;stroke:#000000;stroke-width:0.47647628px;stroke-linecap:butt;stroke-linejoin:miter;stroke-opacity:1"
         d="m -2580.4478,1213.1012 -2.1039,-1.4489 c 0,0 10.9946,-10.8554 24.8975,-3.6095 13.7133,7.1471 11.8,37.5239 -21.8966,41.6942 0.1813,-1.721 0.3504,-3.442 0.032,-5.1631 3.4429,20.9923 -37.4926,20.8309 -33.2193,0.3215 -0.2524,0.9741 -0.5152,3.0977 -0.083,5.3855 -30.2037,-4.4861 -28.5355,-31.967 -22.7307,-40.6199 7.5153,-11.2026 27.8783,0.7149 27.8783,0.7149 l -2.1744,1.8185 c -0.016,-0.053 11.3617,-11.6858 29.3997,0.9068 l 0,0 z"
         id="path10570"
         inkscape:export-filename="C:\Documents and Settings\!Tiger2\Desktop\Web design start files\grafiki\bare deal\test1.png"
         inkscape:export-xdpi="90"
         inkscape:export-ydpi="90" />
      <path
         sodipodi:type="arc"
         style="opacity:0.2881356;color:#000000;fill:#ff0000;fill-opacity:1;fill-rule:nonzero;stroke:none;stroke-width:0;marker:none;visibility:visible;display:inline;overflow:visible;filter:url(#filter3971-0);enable-background:accumulate"
         id="path10572"
         sodipodi:cx="282.14285"
         sodipodi:cy="253.79076"
         sodipodi:rx="19.285715"
         sodipodi:ry="20"
         d="m 301.42857,253.79076 c 0,11.04569 -8.63451,20 -19.28572,20 -10.6512,0 -19.28571,-8.95431 -19.28571,-20 0,-11.0457 8.63451,-20 19.28571,-20 10.65121,0 19.28572,8.9543 19.28572,20 z"
         transform="matrix(0.47647629,0,0,0.47647629,-2761.3005,1096.7533)" />
      <path
         transform="matrix(0.47647629,0,0,0.47647629,-2698.7565,1096.7533)"
         d="m 301.42857,253.79076 c 0,11.04569 -8.63451,20 -19.28572,20 -10.6512,0 -19.28571,-8.95431 -19.28571,-20 0,-11.0457 8.63451,-20 19.28571,-20 10.65121,0 19.28572,8.9543 19.28572,20 z"
         sodipodi:ry="20"
         sodipodi:rx="19.285715"
         sodipodi:cy="253.79076"
         sodipodi:cx="282.14285"
         id="path10574"
         style="opacity:0.2881356;color:#000000;fill:#ff0000;fill-opacity:1;fill-rule:nonzero;stroke:none;stroke-width:0;marker:none;visibility:visible;display:inline;overflow:visible;filter:url(#filter3971-0);enable-background:accumulate"
         sodipodi:type="arc" />
      <path
         inkscape:connector-curvature="0"
         style="fill:none;stroke:#000000;stroke-width:0.47647628px;stroke-linecap:butt;stroke-linejoin:miter;stroke-opacity:1"
         d="m -2629.8847,1219.0081 c 14.1745,7.4019 15.3787,10.4123 19.6733,17.4349 6.5157,10.6547 22.7499,11.3904 30.3227,-0.9625 4.6149,-7.528 4.0169,-8.5355 17.7101,-16.7178"
         id="path10576"
         sodipodi:nodetypes="cssc"
         inkscape:export-filename="C:\Documents and Settings\!Tiger2\Desktop\Web design start files\grafiki\bare deal\test1.png"
         inkscape:export-xdpi="90"
         inkscape:export-ydpi="90" />
      <path
         inkscape:connector-curvature="0"
         style="fill:none;stroke:#000000;stroke-width:0.47647628px;stroke-linecap:butt;stroke-linejoin:miter;stroke-opacity:1"
         d="m -2629.653,1226.5312 c -3.7849,-11.9449 6.3049,-10.5248 9.3151,-9.7722"
         id="path10578"
         sodipodi:nodetypes="cc"
         inkscape:export-filename="C:\Documents and Settings\!Tiger2\Desktop\Web design start files\grafiki\bare deal\test1.png"
         inkscape:export-xdpi="90"
         inkscape:export-ydpi="90" />
      <path
         inkscape:connector-curvature="0"
         sodipodi:nodetypes="csc"
         id="path10580"
         d="m -2561.9429,1225.7545 c 1.4417,-4.7418 0.2154,-7.2096 -1.7553,-8.4591 -2.7963,-1.7728 -7.0914,-1.0921 -7.3897,-0.9728"
         style="fill:none;stroke:#000000;stroke-width:0.47647628px;stroke-linecap:butt;stroke-linejoin:miter;stroke-opacity:1"
         inkscape:export-filename="C:\Documents and Settings\!Tiger2\Desktop\Web design start files\grafiki\bare deal\test1.png"
         inkscape:export-xdpi="90"
         inkscape:export-ydpi="90" />
      <path
         inkscape:connector-curvature="0"
         sodipodi:nodetypes="cc"
         transform="matrix(0.47647629,0,0,0.47647629,-2748.4654,1094.7898)"
         style="fill:#000000;fill-rule:evenodd;stroke:none;filter:url(#filter3821-3)"
         d="m 325.84272,272.30925 c -0.6882,-0.72738 -1.36025,-1.48154 -2.0146,-2.25284 -1.7385,4.75442 -3.01211,9.89505 -2.38424,15.3711 0,0 0,0 0,0 0.15348,1.30489 0.45185,2.65442 0.99263,4.00857 0,0 0,0 0,0 0.14061,0.35091 0.31281,0.71821 0.52708,1.09761 0.0699,0.1157 0.15059,0.24116 0.24346,0.37588 0,0 0,0 0,0 0.6517,-0.50162 1.30617,-1.0069 1.96368,-1.51772 0.002,-0.001 0.004,-0.003 0.005,-0.004 -0.002,0.001 -0.004,0.003 -0.005,0.004 -0.65749,0.5108 -1.30873,1.01339 -1.95397,1.50967 0,0 0,0 0,0 -0.0835,-0.14195 -0.15416,-0.27378 -0.2137,-0.39541 0,0 0,0 0,0 -0.17561,-0.40342 -0.30565,-0.78943 -0.40378,-1.15711 0,0 0,0 0,0 -0.37705,-1.41881 -0.48946,-2.785 -0.46464,-4.09002 0,0 0,0 0,0 0.10216,-4.82032 1.71602,-9.02544 3.70808,-12.94973 z"
         id="path10582"
         inkscape:path-effect="#path-effect3661-4"
         inkscape:original-d="m 323.75389,270.03965 c -3.18539,14.11115 1.42227,19.34783 1.42227,19.34783"
         inkscape:export-filename="C:\Documents and Settings\!Tiger2\Desktop\Web design start files\grafiki\bare deal\test1.png"
         inkscape:export-xdpi="90"
         inkscape:export-ydpi="90" />
      <path
         inkscape:connector-curvature="0"
         style="fill:#1a1a1a;stroke:#000000;stroke-width:0.37686935px;stroke-linecap:butt;stroke-linejoin:miter;stroke-opacity:1"
         d="m -2606.3914,1215.6225 c 0,0 0.833,10.4395 11.245,9.5696 10.4119,-0.87 12.0779,-8.1777 11.0367,-9.7437 -1.0412,-1.5659 -7.7049,-4.3498 -12.0779,-3.6538 -4.373,0.696 -8.3296,1.74 -10.2038,3.8279 z"
         id="path10584"
         inkscape:export-filename="C:\Documents and Settings\!Tiger2\Desktop\Web design start files\grafiki\bare deal\test1.png"
         inkscape:export-xdpi="90"
         inkscape:export-ydpi="90" />
      <path
         inkscape:connector-curvature="0"
         transform="matrix(0.47647629,0,0,0.47647629,-2750.2543,1094.7898)"
         id="path10586"
         d="m 314.86688,254.03448 c 0,0 0.75515,12.8788 10.1945,11.80556 9.43934,-1.07323 10.94964,-10.08839 10.00571,-12.02022 -0.94394,-1.93182 -6.98513,-5.36616 -10.94965,-4.50758 -3.96453,0.85858 -7.55148,2.14647 -9.25056,4.72224 z"
         style="opacity:0.71610173;fill:#ffffff;stroke:#000000;stroke-width:0.39855766px;stroke-linecap:butt;stroke-linejoin:miter;stroke-opacity:1;filter:url(#filter3828-3)"
         inkscape:export-filename="C:\Documents and Settings\!Tiger2\Desktop\Web design start files\grafiki\bare deal\test1.png"
         inkscape:export-xdpi="90"
         inkscape:export-ydpi="90" />
      <path
         inkscape:connector-curvature="0"
         style="fill:#000000;fill-rule:evenodd;stroke:none"
         d="m -2599.3601,1185.4951 3.3826,-9.4106 c -5.9361,-1.1176 -12.2322,-0.7608 -17.578,1.505 -3.4055,1.4893 -6.1011,3.6696 -8.6165,5.935 3.1815,-1.1566 6.4381,-2.1287 9.5027,-2.1571 4.8577,-0.1274 9.3826,1.7001 13.3092,4.1277 z"
         id="path10588"
         inkscape:path-effect="#path-effect3344-0"
         inkscape:original-d="m -2597.6688,1180.7898 c -12.765,-4.5884 -20.2502,0.18 -24.5032,2.7347"
         inkscape:export-filename="C:\Documents and Settings\!Tiger2\Desktop\Web design start files\grafiki\bare deal\test1.png"
         inkscape:export-xdpi="90"
         inkscape:export-ydpi="90" />
      <path
         sodipodi:type="arc"
         style="color:#000000;fill:#1a1a1a;fill-opacity:1;fill-rule:nonzero;stroke:#0000a2;stroke-width:0;stroke-miterlimit:4;stroke-opacity:1;stroke-dasharray:none;stroke-dashoffset:0;marker:none;visibility:visible;display:inline;overflow:visible;enable-background:accumulate"
         id="path10590"
         sodipodi:cx="313.14728"
         sodipodi:cy="227.57263"
         sodipodi:rx="4.5456862"
         sodipodi:ry="5.5558391"
         d="m 317.69296,227.57263 c 0,3.06841 -2.03517,5.55584 -4.54568,5.55584 -2.51052,0 -4.54569,-2.48743 -4.54569,-5.55584 0,-3.0684 2.03517,-5.55584 4.54569,-5.55584 2.51051,0 4.54568,2.48744 4.54568,5.55584 z"
         transform="matrix(0.90848143,0,0,0.84466248,-2886.4818,1009.9177)"
         inkscape:export-filename="C:\Documents and Settings\!Tiger2\Desktop\Web design start files\grafiki\bare deal\test1.png"
         inkscape:export-xdpi="90"
         inkscape:export-ydpi="90" />
      <path
         sodipodi:type="arc"
         style="opacity:0.90677963;color:#000000;fill:#ffffff;fill-opacity:1;fill-rule:nonzero;stroke:#0000a2;stroke-width:0;stroke-miterlimit:4;stroke-opacity:1;stroke-dasharray:none;stroke-dashoffset:0;marker:none;visibility:visible;display:inline;overflow:visible;filter:url(#filter4083-1);enable-background:accumulate"
         id="path10592"
         sodipodi:cx="313.14728"
         sodipodi:cy="227.57263"
         sodipodi:rx="4.5456862"
         sodipodi:ry="5.5558391"
         d="m 317.69296,227.57263 c 0,3.06841 -2.03517,5.55584 -4.54568,5.55584 -2.51052,0 -4.54569,-2.48743 -4.54569,-5.55584 0,-3.0684 2.03517,-5.55584 4.54569,-5.55584 2.51051,0 4.54568,2.48744 4.54568,5.55584 z"
         transform="matrix(0.30282712,0,0,0.28155414,-2685.0082,1137.1128)"
         inkscape:export-filename="C:\Documents and Settings\!Tiger2\Desktop\Web design start files\grafiki\bare deal\test1.png"
         inkscape:export-xdpi="90"
         inkscape:export-ydpi="90" />
      <path
         transform="matrix(0.30282712,0,0,0.28155414,-2698.2474,1137.1128)"
         d="m 317.69296,227.57263 c 0,3.06841 -2.03517,5.55584 -4.54568,5.55584 -2.51052,0 -4.54569,-2.48743 -4.54569,-5.55584 0,-3.0684 2.03517,-5.55584 4.54569,-5.55584 2.51051,0 4.54568,2.48744 4.54568,5.55584 z"
         sodipodi:ry="5.5558391"
         sodipodi:rx="4.5456862"
         sodipodi:cy="227.57263"
         sodipodi:cx="313.14728"
         id="path10594"
         style="opacity:0.90677963;color:#000000;fill:#ffffff;fill-opacity:1;fill-rule:nonzero;stroke:#0000a2;stroke-width:0;stroke-miterlimit:4;stroke-opacity:1;stroke-dasharray:none;stroke-dashoffset:0;marker:none;visibility:visible;display:inline;overflow:visible;filter:url(#filter4091-8);enable-background:accumulate"
         sodipodi:type="arc"
         inkscape:export-filename="C:\Documents and Settings\!Tiger2\Desktop\Web design start files\grafiki\bare deal\test1.png"
         inkscape:export-xdpi="90"
         inkscape:export-ydpi="90" />
      <path
         inkscape:connector-curvature="0"
         style="fill:url(#radialGradient10616);fill-opacity:1;stroke:#000000;stroke-width:0.47647628px;stroke-linecap:butt;stroke-linejoin:miter;stroke-opacity:1"
         d="m -2606.2006,1240.9475 c 0.722,7.9416 5.1625,12.3319 10.4479,12.3319 5.7758,0 11.2284,-4.0499 11.7097,-12.2323 -7.9749,4.0461 -15.0229,5.9122 -22.1576,-0.1 z"
         id="path10596"
         sodipodi:nodetypes="cscc"
         inkscape:export-filename="C:\Documents and Settings\!Tiger2\Desktop\Web design start files\grafiki\bare deal\test1.png"
         inkscape:export-xdpi="90"
         inkscape:export-ydpi="90" />
      <path
         inkscape:connector-curvature="0"
         inkscape:original-d="m 105.75443,267.51546 c -5.55584,13.63706 -3.85435,21.81107 -3.85435,21.81107"
         inkscape:path-effect="#path-effect3051-1"
         id="path10598"
         d="m 108.06964,268.45874 c -0.83884,-0.28397 -1.67849,-0.56614 -2.51895,-0.84649 -2.59053,4.85908 -4.68608,10.1016 -5.684498,15.76409 -0.261773,1.48895 -0.441835,3.026 -0.479702,4.61352 0,0 0,0 0,0 -0.0098,0.41461 -0.0072,0.84544 0.01569,1.29311 0,0 0,0 0,0 0.0059,0.11575 0.01462,0.23944 0.0271,0.37116 0,0 0,0 0,0 -0.02257,0.0409 -0.01536,0.10102 0.02277,0.17937 0.815746,-0.16807 1.631756,-0.33705 2.448036,-0.50697 -0.81628,0.16992 -1.63229,0.3389 -2.448013,0.50696 -0.03422,-0.0791 -0.03734,-0.13987 -0.01095,-0.18143 -0.0012,-0.13352 0.0014,-0.25857 0.0069,-0.37558 0.02106,-0.45254 0.06273,-0.88473 0.116786,-1.29971 0.207133,-1.58892 0.557635,-3.09854 0.985635,-4.55088 0,0 0,0 0,0 1.64611,-5.5794 4.37642,-10.48826 7.51924,-14.96719 0,2e-5 -1e-5,3e-5 -2e-5,4e-5 z"
         style="fill:#000000;fill-rule:evenodd;stroke:none;filter:url(#filter3821-3)"
         transform="matrix(0.53348958,-0.0800904,0.1531518,0.34101846,-2692.7611,1161.7247)"
         sodipodi:nodetypes="cc"
         inkscape:export-filename="C:\Documents and Settings\!Tiger2\Desktop\Web design start files\grafiki\bare deal\test1.png"
         inkscape:export-xdpi="90"
         inkscape:export-ydpi="90" />
      <path
         inkscape:connector-curvature="0"
         inkscape:export-ydpi="90"
         inkscape:export-xdpi="90"
         inkscape:export-filename="C:\Documents and Settings\!Tiger2\Desktop\Web design start files\grafiki\bare deal\test1.png"
         inkscape:original-d="m -2592.7776,1180.7898 c 12.7651,-4.5884 20.2502,0.18 24.5032,2.7347"
         inkscape:path-effect="#path-effect3322-4"
         id="path10600"
         d="m -2594.4689,1176.0845 3.3826,9.4106 c 3.9266,-2.4276 8.4515,-4.2551 13.3093,-4.1277 3.0645,0.028 6.3211,1.0005 9.5026,2.1571 -2.5154,-2.2654 -5.211,-4.4457 -8.6165,-5.935 -5.3457,-2.2658 -11.6419,-2.6226 -17.578,-1.505 z"
         style="fill:#000000;fill-rule:evenodd;stroke:none" />
      <path
         transform="matrix(0.89448832,0,0,0.89448832,-2744.6742,1138.2383)"
         d="m 177.27652,109.03168 c 0,0.55499 -0.44991,1.00489 -1.0049,1.00489 -0.55499,0 -1.00489,-0.4499 -1.00489,-1.00489 0,-0.55499 0.4499,-1.0049 1.00489,-1.0049 0.55499,0 1.0049,0.44991 1.0049,1.0049 z"
         sodipodi:ry="1.004896"
         sodipodi:rx="1.004896"
         sodipodi:cy="109.03168"
         sodipodi:cx="176.27162"
         id="path10602"
         style="color:#000000;fill:#1a1a1a;fill-opacity:1;fill-rule:nonzero;stroke:none;stroke-width:3;marker:none;visibility:visible;display:inline;overflow:visible;enable-background:accumulate"
         sodipodi:type="arc" />
      <path
         sodipodi:type="arc"
         style="color:#000000;fill:#1a1a1a;fill-opacity:1;fill-rule:nonzero;stroke:none;stroke-width:3;marker:none;visibility:visible;display:inline;overflow:visible;enable-background:accumulate"
         id="path10604"
         sodipodi:cx="176.27162"
         sodipodi:cy="109.03168"
         sodipodi:rx="1.004896"
         sodipodi:ry="1.004896"
         d="m 177.27652,109.03168 c 0,0.55499 -0.44991,1.00489 -1.0049,1.00489 -0.55499,0 -1.00489,-0.4499 -1.00489,-1.00489 0,-0.55499 0.4499,-1.0049 1.00489,-1.0049 0.55499,0 1.0049,0.44991 1.0049,1.0049 z"
         transform="matrix(0.89448832,0,0,0.89448832,-2742.8853,1132.8714)" />
      <path
         transform="matrix(0.89448832,0,0,0.89448832,-2748.2522,1134.6604)"
         d="m 177.27652,109.03168 c 0,0.55499 -0.44991,1.00489 -1.0049,1.00489 -0.55499,0 -1.00489,-0.4499 -1.00489,-1.00489 0,-0.55499 0.4499,-1.0049 1.00489,-1.0049 0.55499,0 1.0049,0.44991 1.0049,1.0049 z"
         sodipodi:ry="1.004896"
         sodipodi:rx="1.004896"
         sodipodi:cy="109.03168"
         sodipodi:cx="176.27162"
         id="path10606"
         style="color:#000000;fill:#1a1a1a;fill-opacity:1;fill-rule:nonzero;stroke:none;stroke-width:3;marker:none;visibility:visible;display:inline;overflow:visible;enable-background:accumulate"
         sodipodi:type="arc" />
      <path
         sodipodi:type="arc"
         style="color:#000000;fill:#1a1a1a;fill-opacity:1;fill-rule:nonzero;stroke:none;stroke-width:3;marker:none;visibility:visible;display:inline;overflow:visible;enable-background:accumulate"
         id="path10608"
         sodipodi:cx="176.27162"
         sodipodi:cy="109.03168"
         sodipodi:rx="1.004896"
         sodipodi:ry="1.004896"
         d="m 177.27652,109.03168 c 0,0.55499 -0.44991,1.00489 -1.0049,1.00489 -0.55499,0 -1.00489,-0.4499 -1.00489,-1.00489 0,-0.55499 0.4499,-1.0049 1.00489,-1.0049 0.55499,0 1.0049,0.44991 1.0049,1.0049 z"
         transform="matrix(-0.86104221,0.24231316,0.24231316,0.86104221,-2478.4538,1098.5154)" />
      <path
         transform="matrix(-0.86104221,0.24231316,0.24231316,0.86104221,-2481.6297,1093.8338)"
         d="m 177.27652,109.03168 c 0,0.55499 -0.44991,1.00489 -1.0049,1.00489 -0.55499,0 -1.00489,-0.4499 -1.00489,-1.00489 0,-0.55499 0.4499,-1.0049 1.00489,-1.0049 0.55499,0 1.0049,0.44991 1.0049,1.0049 z"
         sodipodi:ry="1.004896"
         sodipodi:rx="1.004896"
         sodipodi:cy="109.03168"
         sodipodi:cx="176.27162"
         id="path10610"
         style="color:#000000;fill:#1a1a1a;fill-opacity:1;fill-rule:nonzero;stroke:none;stroke-width:3;marker:none;visibility:visible;display:inline;overflow:visible;enable-background:accumulate"
         sodipodi:type="arc" />
      <path
         sodipodi:type="arc"
         style="color:#000000;fill:#1a1a1a;fill-opacity:1;fill-rule:nonzero;stroke:none;stroke-width:3;marker:none;visibility:visible;display:inline;overflow:visible;enable-background:accumulate"
         id="path10612"
         sodipodi:cx="176.27162"
         sodipodi:cy="109.03168"
         sodipodi:rx="1.004896"
         sodipodi:ry="1.004896"
         d="m 177.27652,109.03168 c 0,0.55499 -0.44991,1.00489 -1.0049,1.00489 -0.55499,0 -1.00489,-0.4499 -1.00489,-1.00489 0,-0.55499 0.4499,-1.0049 1.00489,-1.0049 0.55499,0 1.0049,0.44991 1.0049,1.0049 z"
         transform="matrix(-0.86104221,0.24231316,0.24231316,0.86104221,-2475.9789,1094.102)" />
    </g>
  </g>
</svg>
