/* XPM */
static char * pysiogame_xpm[] = {
"32 32 399 2",
"  	c None",
". 	c #606060",
"+ 	c #2F251E",
"@ 	c #26150B",
"# 	c #3C3129",
"$ 	c #100905",
"% 	c #353535",
"& 	c #464244",
"* 	c #4A403C",
"= 	c #352217",
"- 	c #796E66",
"; 	c #260800",
"> 	c #391D0B",
", 	c #4D3528",
"' 	c #381E0D",
") 	c #260C00",
"! 	c #594D44",
"~ 	c #291A13",
"{ 	c #3A3632",
"] 	c #373838",
"^ 	c #56331C",
"/ 	c #521F00",
"( 	c #583B28",
"_ 	c #3F3C39",
": 	c #322A26",
"< 	c #1E0B00",
"[ 	c #290E00",
"} 	c #371500",
"| 	c #3A1400",
"1 	c #441B00",
"2 	c #461C00",
"3 	c #441A00",
"4 	c #3D1800",
"5 	c #321000",
"6 	c #4D382C",
"7 	c #45372F",
"8 	c #413937",
"9 	c #595857",
"0 	c #5B3F2D",
"a 	c #511F00",
"b 	c #522D14",
"c 	c #532405",
"d 	c #5A2502",
"e 	c #592501",
"f 	c #551F00",
"g 	c #563017",
"h 	c #5A4739",
"i 	c #A2A3A3",
"j 	c #7A716D",
"k 	c #321400",
"l 	c #3E1800",
"m 	c #4D1E00",
"n 	c #572200",
"o 	c #5C2400",
"p 	c #5B2400",
"q 	c #5D2400",
"r 	c #4B1D00",
"s 	c #2F1100",
"t 	c #3A271B",
"u 	c #59473C",
"v 	c #50280D",
"w 	c #561E00",
"x 	c #5F2904",
"y 	c #522303",
"z 	c #522202",
"A 	c #6E330B",
"B 	c #75370E",
"C 	c #6C310A",
"D 	c #602905",
"E 	c #572100",
"F 	c #54290C",
"G 	c #49352B",
"H 	c #2F0F00",
"I 	c #471C00",
"J 	c #3A1700",
"K 	c #0E0500",
"L 	c #000000",
"M 	c #2B1100",
"N 	c #180900",
"O 	c #140800",
"P 	c #431A00",
"Q 	c #301200",
"R 	c #432F23",
"S 	c #52270B",
"T 	c #582100",
"U 	c #622C07",
"V 	c #71350D",
"W 	c #773910",
"X 	c #70350C",
"Y 	c #4E1800",
"Z 	c #532101",
"` 	c #71350C",
" .	c #773B10",
"..	c #723710",
"+.	c #572D10",
"@.	c #562B0E",
"#.	c #552709",
"$.	c #2A1000",
"%.	c #421A00",
"&.	c #401900",
"*.	c #351500",
"=.	c #461B00",
"-.	c #350F00",
";.	c #040000",
">.	c #5B2300",
",.	c #0F0000",
"'.	c #371100",
").	c #481C00",
"!.	c #2F1200",
"~.	c #4A1D00",
"{.	c #5B2B0A",
"].	c #53290E",
"^.	c #532A10",
"/.	c #703711",
"(.	c #773B11",
"_.	c #72350D",
":.	c #521B00",
"<.	c #7E8183",
"[.	c #532404",
"}.	c #6F340C",
"|.	c #773A11",
"1.	c #6E3611",
"2.	c #492710",
"3.	c #422410",
"4.	c #3A1D09",
"5.	c #3C1700",
"6.	c #501F00",
"7.	c #5C2500",
"8.	c #672800",
"9.	c #794113",
"0.	c #D1B662",
"a.	c #D3B35E",
"b.	c #722C02",
"c.	c #7B3C0E",
"d.	c #DFC469",
"e.	c #CBB360",
"f.	c #692B03",
"g.	c #652600",
"h.	c #4E1F00",
"i.	c #391600",
"j.	c #3F210D",
"k.	c #422411",
"l.	c #482710",
"m.	c #6C3610",
"n.	c #773A10",
"o.	c #71340D",
"p.	c #522000",
"q.	c #522608",
"r.	c #662D07",
"s.	c #763910",
"t.	c #743810",
"u.	c #592E10",
"v.	c #492711",
"w.	c #3B1B06",
"x.	c #5A2300",
"y.	c #642600",
"z.	c #692300",
"A.	c #F2DE7C",
"B.	c #FEE57F",
"C.	c #FEE47F",
"D.	c #C18E42",
"E.	c #CBA755",
"F.	c #FFE57F",
"G.	c #AF8F49",
"H.	c #702A00",
"I.	c #642700",
"J.	c #592200",
"K.	c #41200A",
"L.	c #582D10",
"M.	c #672E08",
"N.	c #55290B",
"O.	c #523423",
"P.	c #5F2905",
"Q.	c #652D07",
"R.	c #632B06",
"S.	c #421D04",
"T.	c #602500",
"U.	c #6C2900",
"V.	c #702500",
"W.	c #FEE883",
"X.	c #FFEE83",
"Y.	c #C0AE62",
"Z.	c #CB9A4A",
"`.	c #DBC46C",
" +	c #D1BE6B",
".+	c #B5944C",
"++	c #772C00",
"@+	c #6B2900",
"#+	c #5E2500",
"$+	c #441D01",
"%+	c #5A2604",
"&+	c #622A06",
"*+	c #602A05",
"=+	c #4D2A15",
"-+	c #48240D",
";+	c #562B0D",
">+	c #4C2104",
",+	c #130700",
"'+	c #2C1100",
")+	c #672700",
"!+	c #742D00",
"~+	c #813000",
"{+	c #AA813E",
"]+	c #A09152",
"^+	c #464953",
"/+	c #92662F",
"(+	c #777356",
"_+	c #282931",
":+	c #FFFF8E",
"<+	c #823B09",
"[+	c #7E3000",
"}+	c #722B00",
"|+	c #652700",
"1+	c #582200",
"2+	c #260F00",
"3+	c #442511",
"4+	c #552B0F",
"5+	c #562A0C",
"6+	c #4F2B14",
"7+	c #191A1B",
"8+	c #31231A",
"9+	c #301000",
"0+	c #4A1B00",
"a+	c #A55427",
"b+	c #B16131",
"c+	c #AC5827",
"d+	c #8C4010",
"e+	c #7F2600",
"f+	c #DFD377",
"g+	c #2E2C1E",
"h+	c #B27532",
"i+	c #675C34",
"j+	c #877F4D",
"k+	c #B8873F",
"l+	c #8F3100",
"m+	c #944515",
"n+	c #AA5423",
"o+	c #A44F20",
"p+	c #692B0A",
"q+	c #481A00",
"r+	c #2D0F00",
"s+	c #0C0000",
"t+	c #636363",
"u+	c #302218",
"v+	c #371805",
"w+	c #DD7640",
"x+	c #FF7E46",
"y+	c #FE7B44",
"z+	c #FF884B",
"A+	c #FF9B56",
"B+	c #CF7B44",
"C+	c #B7642F",
"D+	c #FF9B54",
"E+	c #D9854A",
"F+	c #D68047",
"G+	c #DB8649",
"H+	c #843A0F",
"I+	c #DC8246",
"J+	c #FF9754",
"K+	c #FF8449",
"L+	c #FF7C44",
"M+	c #FF8C4E",
"N+	c #A3552B",
"O+	c #371A09",
"P+	c #625B56",
"Q+	c #242423",
"R+	c #3C3B3B",
"S+	c #27150A",
"T+	c #491E07",
"U+	c #FF854A",
"V+	c #F86E3D",
"W+	c #E26437",
"X+	c #F17540",
"Y+	c #FF8F4F",
"Z+	c #FF9954",
"`+	c #B67040",
" @	c #1C1E1E",
".@	c #82868A",
"+@	c #6D7275",
"@@	c #181717",
"#@	c #D17F47",
"$@	c #FC9452",
"%@	c #FF8B4C",
"&@	c #DD6739",
"*@	c #E96538",
"=@	c #FF7440",
"-@	c #572910",
";@	c #2D1B10",
">@	c #2A2929",
",@	c #161412",
"'@	c #6B3518",
")@	c #FF8348",
"!@	c #DE6236",
"~@	c #E66437",
"{@	c #FE9754",
"]@	c #D17E46",
"^@	c #0E1519",
"/@	c #858484",
"(@	c #686868",
"_@	c #091014",
":@	c #E2884C",
"<@	c #FE9653",
"[@	c #FE884B",
"}@	c #FF7A44",
"|@	c #D95D34",
"1@	c #E7693A",
"2@	c #FE854A",
"3@	c #B07349",
"4@	c #150600",
"5@	c #2D1A0D",
"6@	c #723B1C",
"7@	c #FF8D4E",
"8@	c #ED7340",
"9@	c #F47741",
"0@	c #D5703E",
"a@	c #FF9653",
"b@	c #FE9854",
"c@	c #FF9B55",
"d@	c #B87141",
"e@	c #533825",
"f@	c #573A25",
"g@	c #DD864B",
"h@	c #EB874B",
"i@	c #DB703E",
"j@	c #FF7D44",
"k@	c #E2723E",
"l@	c #FE8E4E",
"m@	c #A15E2E",
"n@	c #50453F",
"o@	c #7E5F4B",
"p@	c #FF9852",
"q@	c #FF9050",
"r@	c #D37F47",
"s@	c #F09051",
"t@	c #E3894D",
"u@	c #ED8D4E",
"v@	c #FB9753",
"w@	c #FA9653",
"x@	c #EE8F50",
"y@	c #F59351",
"z@	c #E3864B",
"A@	c #FE9250",
"B@	c #FF9251",
"C@	c #FF9753",
"D@	c #7E4A26",
"E@	c #64605E",
"F@	c #EC8D4E",
"G@	c #FF9854",
"H@	c #DA8349",
"I@	c #FF9C56",
"J@	c #E98D4F",
"K@	c #EA8D4F",
"L@	c #E78D4F",
"M@	c #FF9E57",
"N@	c #D48047",
"O@	c #FF9955",
"P@	c #FA9551",
"Q@	c #5E5752",
"R@	c #AB8164",
"S@	c #FF9A53",
"T@	c #F09150",
"U@	c #E98C4D",
"V@	c #FF9A55",
"W@	c #DD844A",
"X@	c #FD9854",
"Y@	c #B28262",
"Z@	c #FE9750",
"`@	c #FC9754",
" #	c #93512D",
".#	c #854929",
"+#	c #BB703D",
"@#	c #A76236",
"##	c #5B2D19",
"$#	c #B06638",
"%#	c #FE9955",
"&#	c #FF9A54",
"*#	c #E88E53",
"=#	c #C3835A",
"-#	c #DC874D",
";#	c #EF8E4F",
">#	c #F39451",
",#	c #400000",
"'#	c #270000",
")#	c #3D0000",
"!#	c #550603",
"~#	c #FFA159",
"{#	c #C67944",
"]#	c #BE855D",
"^#	c #BF7E52",
"/#	c #E48046",
"(#	c #B22916",
"_#	c #B8341C",
":#	c #F39250",
"<#	c #EF9252",
"[#	c #CE8655",
"}#	c #FF9750",
"|#	c #FF9F57",
"1#	c #FF9F55",
"2#	c #CF8553",
"                                                                ",
"                                                                ",
"                                                                ",
"                                                                ",
"                        .                                       ",
"                          +     @   # $ %                       ",
"                    & * = - ; > , ' ) ! ~ { ]                   ",
"  ^ / (         _ : < [ } | 1 2 2 3 4 5 6 7 8 9         0 a b   ",
"  c d e f g h   i j k l m n o p q p n r 4 s t     u v w x x y   ",
"  z A B C D E F G H I J K L L M N L L O P P Q R S T U V W X Y   ",
"  Z `  ...+.@.#.$.%.&.*.=.-.;.>.l ,.'.).!.~.&.$.{.].^./.(._.:.<.",
"  [.}.|.1.2.3.4.5.6.7.8.9.0.a.b.c.d.e.f.g.>.h.i.j.k.l.m.n.o.p.  ",
"  q.r.s.t.u.v.w.).x.y.z.A.B.C.D.E.B.F.G.H.I.J.=.K.l.L.t.n.M.N.  ",
"  O.n P.Q.R.S.4 p.T.U.V.W.X.Y.Z.`. +F..+++@+#+6.$+%+&+Q.*+n =+  ",
"    -+;+>+,+'+1 x.)+!+~+{+]+^+/+(+_+:+<+[+}+|+1+%.2+3+4+5+6+    ",
"        7+8+9+0+a+b+c+d+e+f+g+h+i+j+k+l+m+n+o+p+q+r+s+          ",
"      t+  u+v+w+x+y+z+A+B+C+D+E+F+G+H+I+J+K+L+M+N+O+P+Q+        ",
"        R+S+T+U+V+W+X+Y+Z+`+ @.@+@@@#@$@%@&@*@=@M+-@;@>@        ",
"        ,@  '@)@!@~@L+Y+{@]@^@/@(@_@:@<@[@}@|@1@2@3@4@          ",
"          5@6@7@8@9@0@a@b@c@d@e@f@g@b@{@h@i@j@k@l@m@            ",
"          n@o@p@q@Y+a@r@A+s@t@u@v@w@x@y@z@A@Y+B@C@D@            ",
"          E@  F@J+J+G@A+H@I@J@b@K@L@M@N@O@b@J+{@P@  Q@          ",
"              R@S@O@O@b@T@U@c@O@b@V@W@X@O@O@b@b@                ",
"                Y@Z@Z+G@`@ #.#+#@###$#w@%#&#*#                  ",
"                    =#-#;#>#,#'#)#!#~#{#]#                      ",
"                        ^#b@/#(#_#:#<#                          ",
"                          [#}#|#1#2#                            ",
"                                                                ",
"                                                                ",
"                                                                ",
"                                                                ",
"                                                                "};
